<svg xmlns="http://www.w3.org/2000/svg" version="1.1" xmlns:xlink="http://www.w3.org/1999/xlink" xmlns:svgjs="http://svgjs.dev/svgjs" width="128" height="128" viewBox="0 0 128 128"><g transform="matrix(0.44782608695652176,0,0,0.44782608695652176,35.33913043478261,12.5)"><svg viewBox="0 0 125 225" data-background-color="#50a060" preserveAspectRatio="xMidYMid meet" height="230" width="128" xmlns="http://www.w3.org/2000/svg" xmlns:xlink="http://www.w3.org/1999/xlink"><g id="tight-bounds" transform="matrix(1,0,0,1,0,0)"><svg viewBox="0 0 125 225" height="225" width="125"><g><svg></svg></g><g><svg viewBox="0 0 125 225" height="225" width="125"><g><path d="M125 115.278c0-17.876-7.906-33.932-20.392-44.886-10.954-12.486-27.01-20.392-44.886-20.392-32.931 0-59.722 26.792-59.722 59.722 0 17.872 7.903 33.925 20.385 44.879 10.954 12.49 27.012 20.399 44.893 20.399 0.117 0 0.231-0.008 0.347-0.008 0.117 0 0.231 0.008 0.347 0.008 32.6 0 59.028-26.428 59.028-59.028 0-0.117-0.008-0.231-0.008-0.347 0-0.117 0.008-0.231 0.008-0.347zM23.372 144.96c-5.896-8.303-9.403-18.415-9.475-29.335 0.188-28.488 23.239-51.54 51.728-51.728 10.919 0.072 21.033 3.579 29.335 9.475 9.518 9.229 15.457 22.125 15.457 36.35 0 27.953-22.742 50.694-50.695 50.695-14.225 0-27.121-5.939-36.35-15.457zM1.389 109.722c0-32.165 26.168-58.333 58.333-58.333 13.692 0 26.286 4.753 36.25 12.68-8.976-5.4-19.478-8.514-30.694-8.513-32.931 0-59.722 26.792-59.722 59.722 0 11.214 3.112 21.712 8.509 30.687-7.925-9.961-12.676-22.554-12.676-36.243zM65.278 166.667c-14 0-26.704-5.632-35.979-14.743 8.575 6.207 19.087 9.882 30.423 9.882 28.719 0 52.083-23.364 52.084-52.084 0-11.336-3.675-21.849-9.882-30.423 9.111 9.275 14.743 21.979 14.743 35.979 0 28.336-23.053 51.389-51.389 51.389z" fill="#096a2e" fill-rule="nonzero" stroke="none" stroke-width="1" stroke-linecap="butt" stroke-linejoin="miter" stroke-miterlimit="10" stroke-dasharray="" stroke-dashoffset="0" font-family="none" font-weight="none" font-size="none" text-anchor="none" style="mix-blend-mode: normal" data-fill-palette-color="tertiary"></path></g><g transform="matrix(1,0,0,1,39.325,88.10914149443562)"><svg viewBox="0 0 46.35 48.78171701112878" height="48.78171701112878" width="46.35"><g><svg viewBox="0 0 46.35 48.78171701112878" height="48.78171701112878" width="46.35"><g><svg viewBox="0 0 46.35 48.78171701112878" height="48.78171701112878" width="46.35"><g id="textblocktransform"><svg viewBox="0 0 46.35 48.78171701112878" height="48.78171701112878" width="46.35" id="textblock"><g><svg viewBox="0 0 46.35 48.78171701112878" height="48.78171701112878" width="46.35"><g transform="matrix(1,0,0,1,0,0)"><svg width="46.35" viewBox="0.4 -33.1 31.450000000000003 33.1" height="48.78171701112878" data-palette-color="#085726"><path d="M7.3 0L0.4 0 0.4-0.5 1.65-0.95Q2.65-1.35 3.2-1.93 3.75-2.5 4.1-3.55L4.1-3.55 14.4-33.1 18.65-33.1 28.8-3.35Q29.2-2.25 29.7-1.68 30.2-1.1 31.25-0.7L31.25-0.7 31.85-0.5 31.85 0 19.15 0 19.15-0.5 19.9-0.75Q20.95-1.15 21.18-1.88 21.4-2.6 21.1-3.6L21.1-3.6 18.75-10.8 7.65-10.8 5.25-3.75Q4.9-2.65 5.03-2 5.15-1.35 6.2-0.95L6.2-0.95 7.3-0.5 7.3 0ZM13.4-27.35L8-11.8 18.45-11.8 13.4-27.35Z" opacity="1" transform="matrix(1,0,0,1,0,0)" fill="#085726" class="wordmark-text-0" data-fill-palette-color="primary" id="text-0"></path></svg></g></svg></g></svg></g></svg></g></svg></g></svg></g></svg></g><defs></defs></svg><rect width="125" height="225" fill="none" stroke="none" visibility="hidden"></rect></g></svg></g></svg>